<?xml version="1.0" encoding="UTF-8" standalone="no"?><svg xmlns="http://www.w3.org/2000/svg" xmlns:xlink="http://www.w3.org/1999/xlink" clip-rule="evenodd" fill="#03396c" fill-rule="evenodd" height="496" preserveAspectRatio="xMidYMid meet" stroke-linejoin="round" stroke-miterlimit="2" version="1" viewBox="6.7 7.0 496.5 496.0" width="496.5" zoomAndPan="magnify"><g id="change1_1"><path d="M401.333,417.006C387.664,428.734 369.895,435.819 350.47,435.819C307.305,435.819 272.319,400.834 272.319,357.669C272.319,314.503 307.305,279.518 350.47,279.518C393.635,279.518 428.621,314.503 428.621,357.669C428.621,374.297 423.429,389.712 414.577,402.38L439.003,426.264L439.89,425.35C442.602,422.55 447.136,422.483 449.936,425.195L492.857,466.848C495.658,469.56 495.724,474.072 492.991,476.895L477.498,492.854C474.786,495.655 470.274,495.722 467.452,493.01L424.553,451.356C421.73,448.644 421.664,444.11 424.397,441.309L425.272,440.408L401.333,417.006ZM350.47,302.012C319.731,302.012 294.814,326.93 294.814,357.669C294.814,388.407 319.731,413.325 350.47,413.325C381.209,413.325 406.126,388.407 406.126,357.669C406.126,326.93 381.209,302.012 350.47,302.012ZM375.363,138L341.368,138C338.607,138 336.368,135.761 336.368,133L336.368,99.005L375.363,138ZM34.415,182.975C27.006,205.652 23,229.862 23,255C23,383.044 126.956,487 255,487C291.043,487 325.178,478.765 355.622,464.071C359.598,462.152 364.384,463.822 366.304,467.799C368.223,471.775 366.553,476.561 362.576,478.481C330.028,494.19 293.535,503 255,503C118.125,503 7,391.875 7,255C7,226.41 11.85,198.943 20.769,173.378L20.392,173.644C16.786,176.191 11.79,175.331 9.242,171.725C6.695,168.118 7.555,163.122 11.161,160.575L34.109,144.367C36.443,142.718 39.48,142.44 42.075,143.637C44.671,144.834 46.43,147.325 46.691,150.171L49.254,178.148C49.657,182.545 46.414,186.442 42.017,186.845C38.851,187.135 35.944,185.535 34.415,182.975ZM475.543,327.155C482.979,304.441 487,280.186 487,255C487,126.956 383.044,23 255,23C218.957,23 184.822,31.235 154.378,45.929C150.402,47.848 145.616,46.178 143.696,42.201C141.777,38.225 143.447,33.439 147.424,31.519C179.972,15.81 216.465,7 255,7C391.875,7 503,118.125 503,255C503,283.522 498.173,310.926 489.295,336.44L489.516,336.283C493.112,333.721 498.112,334.561 500.673,338.157C503.235,341.753 502.396,346.752 498.799,349.314L475.918,365.615C473.59,367.273 470.554,367.563 467.954,366.377C465.354,365.19 463.585,362.706 463.312,359.861L460.637,331.894C460.216,327.499 463.443,323.589 467.838,323.169C471.063,322.86 474.027,324.516 475.543,327.155ZM272.864,410.995L139.637,410.995C138.311,410.995 137.039,410.468 136.102,409.53C135.164,408.593 134.637,407.321 134.637,405.995L134.637,104.005C134.637,102.679 135.164,101.407 136.102,100.47C137.039,99.532 138.311,99.005 139.637,99.005L320.368,99.005L320.368,138C320.368,146.837 327.531,154 336.368,154L375.363,154L375.363,266.843C367.434,264.675 359.087,263.518 350.47,263.518C298.467,263.518 256.319,305.666 256.319,357.669C256.319,377.466 262.428,395.836 272.864,410.995ZM183.768,203.561L326.264,203.561C330.679,203.561 334.264,199.976 334.264,195.561C334.264,191.145 330.679,187.561 326.264,187.561L183.768,187.561C179.352,187.561 175.768,191.145 175.768,195.561C175.768,199.976 179.352,203.561 183.768,203.561ZM183.768,287.518L269.054,287.518C273.469,287.518 277.054,283.933 277.054,279.518C277.054,275.102 273.469,271.518 269.054,271.518L183.768,271.518C179.352,271.518 175.768,275.102 175.768,279.518C175.768,283.933 179.352,287.518 183.768,287.518ZM183.768,161.566L286.038,161.566C290.453,161.566 294.038,157.982 294.038,153.566C294.038,149.151 290.453,145.566 286.038,145.566L183.768,145.566C179.352,145.566 175.768,149.151 175.768,153.566C175.768,157.982 179.352,161.566 183.768,161.566ZM183.768,371.506L236.798,371.506C241.214,371.506 244.798,367.922 244.798,363.506C244.798,359.091 241.214,355.506 236.798,355.506L183.768,355.506C179.352,355.506 175.768,359.091 175.768,363.506C175.768,367.922 179.352,371.506 183.768,371.506ZM183.768,329.512L245,329.512C249.415,329.512 253,325.927 253,321.512C253,317.097 249.415,313.512 245,313.512L183.768,313.512C179.352,313.512 175.768,317.097 175.768,321.512C175.768,325.927 179.352,329.512 183.768,329.512ZM183.768,245.523L326.264,245.523C330.679,245.523 334.264,241.939 334.264,237.523C334.264,233.108 330.679,229.523 326.264,229.523L183.768,229.523C179.352,229.523 175.768,233.108 175.768,237.523C175.768,241.939 179.352,245.523 183.768,245.523Z"/></g></svg>