<?xml version="1.0" encoding="UTF-8" standalone="no"?><svg xmlns="http://www.w3.org/2000/svg" xmlns:xlink="http://www.w3.org/1999/xlink" fill="#03396c" height="60" preserveAspectRatio="xMidYMid meet" version="1" viewBox="8.0 2.0 48.8 60.0" width="48.8" zoomAndPan="magnify"><g id="change1_1"><path d="M56.716,44.31c0-0.513-0.098-1.016-0.289-1.485c-0.732-1.859-2.744-2.89-4.675-2.393c-0.045,0.012-0.09,0.026-0.133,0.044 L38.376,45.93c-0.015-0.106-0.02-0.213-0.047-0.318c-0.386-1.547-1.867-2.568-3.445-2.366c-0.045,0.006-0.09,0.015-0.134,0.026 L20.91,46.978l-4.929-0.824V43c0-0.553-0.448-1-1-1H10c-0.552,0-1,0.447-1,1v18c0,0.553,0.448,1,1,1h4.981c0.552,0,1-0.447,1-1v-2 h6.788l6.175,2.325c0.556,0.21,1.14,0.315,1.729,0.315c0.786,0,1.579-0.188,2.325-0.568l21.51-13.177 C55.869,47.219,56.716,45.845,56.716,44.31z M13.981,60H11V44h2.981V60z M53.54,46.147L32.022,59.328 c-0.734,0.372-1.6,0.417-2.373,0.126l-6.346-2.39C23.19,57.021,23.071,57,22.951,57h-6.97v-8.819l4.812,0.805 c0.14,0.023,0.286,0.017,0.424-0.021l13.975-3.742c0.547-0.041,1.06,0.324,1.197,0.872c0.076,0.306,0.027,0.622-0.139,0.891 c-0.165,0.267-0.423,0.45-0.727,0.519c-0.043,0.01-0.086,0.022-0.128,0.038l-6.813,2.52l0.693,1.875l6.756-2.498 c0.666-0.164,1.238-0.542,1.666-1.067l14.612-6.018c0.94-0.205,1.901,0.3,2.26,1.211c0.097,0.24,0.146,0.49,0.146,0.744 C54.716,45.08,54.295,45.768,53.54,46.147z" fill="inherit"/></g><g id="change1_2"><path d="M32,26c-0.551,0-1-0.448-1-1h-2c0,1.302,0.839,2.402,2,2.816V29h2v-1.184c1.161-0.414,2-1.514,2-2.816c0-1.654-1.346-3-3-3 c-0.551,0-1-0.448-1-1s0.449-1,1-1s1,0.448,1,1h2c0-1.302-0.839-2.402-2-2.816V17h-2v1.184c-1.161,0.414-2,1.514-2,2.816 c0,1.654,1.346,3,3,3c0.551,0,1,0.448,1,1S32.551,26,32,26z" fill="inherit"/></g><g id="change1_3"><path d="M19,13c-0.552,0-1,0.447-1,1v18c0,0.553,0.448,1,1,1h26c0.552,0,1-0.447,1-1V14c0-0.553-0.448-1-1-1H19z M44,31H20V15h24V31 z" fill="inherit"/></g><g id="change1_4"><path d="M8.006,34.891c-0.042,0.389,0.145,0.766,0.479,0.967l5,3C13.643,38.952,13.821,39,14,39c0.138,0,0.275-0.028,0.405-0.086 c0.297-0.131,0.512-0.399,0.576-0.718l1-5c0.07-0.35-0.051-0.71-0.319-0.946c-0.266-0.234-0.64-0.312-0.978-0.198l-2.193,0.731 C11.502,30.312,11,27.7,11,25c0-11.579,9.42-21,21-21s21,9.421,21,21c0,4.501-1.403,8.792-4.056,12.408l1.612,1.184 C53.463,34.629,55,29.93,55,25C55,12.317,44.682,2,32,2S9,12.317,9,25c0,2.916,0.535,5.741,1.589,8.417l-1.906,0.635 C8.313,34.175,8.048,34.503,8.006,34.891z M13.682,34.493l-0.384,1.919l-1.919-1.151L13.682,34.493z" fill="inherit"/></g></svg>