<?xml version="1.0" encoding="UTF-8" standalone="no"?><svg xmlns="http://www.w3.org/2000/svg" xmlns:xlink="http://www.w3.org/1999/xlink" fill="#03396c" height="22" preserveAspectRatio="xMidYMid meet" version="1" viewBox="2.0 1.5 21.0 22.0" width="21" zoomAndPan="magnify"><g data-name="Layer 4" id="change1_1"><path d="M13.68,18.72a21.15,21.15,0,0,1-4,2.85q-.58.34-1.2.63a10.51,10.51,0,0,1-6.13-7c.42.26.86.51,1.3.74h0A23.25,23.25,0,0,0,13.68,18.72Zm-6-2.1a23.39,23.39,0,0,1-2.62-10h0c0-.5,0-1,0-1.49A10.49,10.49,0,0,0,2,12.5a10.13,10.13,0,0,0,.09,1.36q.56.38,1.14.72A21.45,21.45,0,0,0,7.69,16.62ZM13.87,3.1c.43-.26.87-.52,1.32-.75A10.48,10.48,0,0,0,6.12,4.17c0,.45-.06.9-.07,1.35a22.37,22.37,0,0,0,.47,4.88A23.39,23.39,0,0,1,13.87,3.1ZM21.34,9h0c.44.23.88.48,1.3.74a10.51,10.51,0,0,0-6.13-7q-.62.29-1.2.63h0a21.41,21.41,0,0,0-4,2.85A23.25,23.25,0,0,1,21.34,9ZM19.93,19.91A10.49,10.49,0,0,0,23,12.5a10.13,10.13,0,0,0-.09-1.36q-.56-.37-1.14-.72a21.45,21.45,0,0,0-4.46-2,23.39,23.39,0,0,1,2.62,10h0C20,18.92,20,19.42,19.93,19.91Zm-8.8,2c-.43.26-.87.52-1.32.75a10.48,10.48,0,0,0,9.07-1.82c0-.45.06-.9.07-1.35a22.37,22.37,0,0,0-.47-4.88A23.39,23.39,0,0,1,11.13,21.9Z" fill="inherit"/></g></svg>